<?xml version="1.0" encoding="UTF-8"?>
<svg width="40" height="40" viewBox="0 0 40 40" fill="none" xmlns="http://www.w3.org/2000/svg">
  <circle cx="20" cy="20" r="20" fill="#FF4B4B"/>
  <path d="M28 14H27V12C27 11.45 26.55 11 26 11C25.45 11 25 11.45 25 12V14H24C22.9 14 22 14.9 22 16V17C22 18.1 22.9 19 24 19H25V28C25 28.55 25.45 29 26 29C26.55 29 27 28.55 27 28V19H28C29.1 19 30 18.1 30 17V16C30 14.9 29.1 14 28 14ZM15.5 11C14.67 11 14 11.67 14 12.5V17.5H12V12.5C12 11.67 11.33 11 10.5 11C9.67 11 9 11.67 9 12.5V17.5C9 19.43 10.57 21 12.5 21V28C12.5 28.55 12.95 29 13.5 29C14.05 29 14.5 28.55 14.5 28V21C16.43 21 18 19.43 18 17.5V12.5C18 11.67 17.33 11 16.5 11H15.5Z" fill="white"/>
</svg> 